#!OML:ASF X:\für Bonn\!DataBase\2005_08_12_Daniel\c3d\Daniel.ASF
:FULLY-SPECIFIED
:DEGREES
124
root 3.67769 13.4143 0.559527 -39.3404 -87.4322 25.2778
lowerback 39.9016 -0.0928493 1.999
upperback 7.02826 -0.767064 -3.21135
thorax -11.6305 -0.81278 -4.10988
lowerneck 2.31554 -1.96505 0.12879
upperneck -14.7964 -3.17594 -1.72533
head -4.84776 -1.58299 -0.389516
rclavicle 1.11319e-014 2.38542e-015
rhumerus 28.8847 19.8341 -86.9835
rradius 82.1633
rwrist 31.2153
rhand -53.0296 11.696
rfingers 7.12502
rthumb -25.4941 343.381
lclavicle 1.11319e-014 2.38542e-015
lhumerus -155.407 215.564 -95.4366
lradius 89.1282
lwrist 40.0731
lhand -32.1386 9.33469
lfingers 7.12502
lthumb -5.38257 39.2463
rfemur -33.0655 -13.3008 2.85239
rtibia 94.1876
rfoot 332.825 14.8934
rtoes -13.4422
lfemur -37.5408 -5.90276 -12.4697
ltibia 92.3983
lfoot -31.3653 -15.4406
ltoes -1.69781
125
root 3.62948 13.3437 0.552758 -38.6789 -87.3361 24.0389
lowerback 39.8254 -0.12629 2.10248
upperback 6.72502 -0.729529 -3.18985
thorax -11.9503 -0.793388 -4.16301
lowerneck 2.63726 -2.05997 0.0933134
upperneck -14.3617 -3.29063 -1.83135
head -4.77091 -1.62281 -0.409969
rclavicle -1.09332e-014 -2.06736e-014
rhumerus 32.1563 19.1407 -85.7482
rradius 82.5841
rwrist 32.2109
rhand -55.161 13.5099
rfingers 7.12502
rthumb -27.5341 345.503
lclavicle -1.09332e-014 -2.06736e-014
lhumerus -152.148 215.604 -97.5213
lradius 90.5528
lwrist 39.7555
lhand -31.7559 8.63404
lfingers 7.12502
lthumb -5.01308 38.5547
rfemur -32.6764 -13.5114 2.47535
rtibia 94.9988
rfoot 332.708 15.0568
rtoes -13.7439
lfemur -37.3858 -5.6715 -12.3926
ltibia 93.3261
lfoot -31.238 -15.68
ltoes -1.99
126
root 3.5835 13.2828 0.545532 -37.4704 -87.2331 22.4055
lowerback 39.7295 -0.169782 2.24455
upperback 6.3671 -0.684421 -3.17905
thorax -12.3273 -0.771694 -4.25335
lowerneck 2.69814 -2.168 0.0720541
upperneck -13.3779 -3.40105 -1.8687
head -4.98437 -1.67694 -0.468035
rclavicle 2.74323e-014 -1.43125e-014
rhumerus 35.4087 18.2815 -84.5319
rradius 82.9429
rwrist 33.0022
rhand -57.102 15.7368
rfingers 7.12502
rthumb -29.3889 348.041
lclavicle 2.74323e-014 -1.43125e-014
lhumerus -148.904 215.462 -99.6417
lradius 91.9331
lwrist 39.6276
lhand -31.3522 7.99529
lfingers 7.12502
lthumb -4.62324 37.9248
rfemur -32.411 -13.7354 2.18133
rtibia 95.7005
rfoot 332.61 15.1664
rtoes -13.989
lfemur -37.3577 -5.45604 -12.2904
ltibia 94.1725
lfoot -31.1771 -15.8144
ltoes -2.43453
127
root 3.5372 13.236 0.537998 -35.956 -87.1503 20.5904
lowerback 39.6145 -0.202822 2.39909
upperback 5.95646 -0.614872 -3.15902
thorax -12.7576 -0.740278 -4.35309
lowerneck 2.64544 -2.28992 0.0256138
upperneck -12.7443 -3.54147 -1.9403
head -4.7403 -1.73721 -0.48099
rclavicle -5.56597e-015 2.62396e-014
rhumerus 38.4802 17.2624 -83.3657
rradius 83.2795
rwrist 33.6368
rhand -58.8102 18.5124
rfingers 7.12502
rthumb -31.0184 351.114
lclavicle -5.56597e-015 2.62396e-014
lhumerus -145.699 215.154 -101.709
lradius 92.9932
lwrist 39.5954
lhand -30.8236 6.96071
lfingers 7.12502
lthumb -4.11283 36.9008
rfemur -32.1769 -13.9201 1.99475
rtibia 96.246
rfoot 332.54 15.2347
rtoes -14.1409
lfemur -37.3852 -5.21463 -12.1581
ltibia 94.8977
lfoot -31.1306 -15.8471
ltoes -2.82914
128
root 3.49156 13.2044 0.529719 -34.0149 -87.0442 18.4229
lowerback 39.5299 -0.252583 2.61254
upperback 5.49668 -0.54563 -3.18517
thorax -13.2591 -0.714197 -4.53716
lowerneck 2.54563 -2.42861 0.0637119
upperneck -12.0495 -3.69348 -1.99814
head -4.46907 -1.80904 -0.504912
rclavicle -1.98785e-016 1.19271e-014
rhumerus 41.3955 16.042 -82.318
rradius 83.5481
rwrist 34.1723
rhand -60.3654 21.8278
rfingers 7.12502
rthumb -32.4997 354.723
lclavicle -1.98785e-016 1.19271e-014
lhumerus -142.479 214.757 -103.787
lradius 93.6569
lwrist 39.7314
lhand -30.2481 5.53799
lfingers 7.12502
lthumb -3.55702 35.4881
rfemur -31.9065 -14.1031 1.87779
rtibia 96.608
rfoot 332.502 15.2666
rtoes -14.1487
lfemur -37.3894 -5.04619 -12.023
ltibia 95.4642
lfoot -31.04 -15.8888
ltoes -3.24766
129
root 3.44487 13.1913 0.521029 -32.2782 -86.9345 16.5172
lowerback 39.4221 -0.282498 2.77781
upperback 5.04497 -0.467794 -3.17815
thorax -13.7431 -0.684553 -4.66454
lowerneck 2.36795 -2.5702 0.0143356
upperneck -11.3926 -3.85614 -2.03092
head -4.19712 -1.88578 -0.505891
rclavicle 1.39149e-015 -1.11319e-014
rhumerus 44.3242 14.7318 -81.2055
rradius 83.8283
rwrist 34.6137
rhand -61.715 25.3121
rfingers 7.12502
rthumb -33.783 358.48
lclavicle 1.39149e-015 -1.11319e-014
lhumerus -139.334 214.154 -105.696
lradius 93.9739
lwrist 39.9166
lhand -29.5977 3.65078
lfingers 7.12502
lthumb -2.92891 33.6104
rfemur -31.5575 -14.245 1.8165
rtibia 96.7775
rfoot 332.465 15.2052
rtoes -14.0741
lfemur -37.327 -4.88896 -11.9175
ltibia 95.8425
lfoot -30.9478 -15.8355
ltoes -3.70481
130
root 3.39853 13.1957 0.512435 -30.1642 -86.8292 14.2677
lowerback 39.3455 -0.318495 3.01248
upperback 4.57686 -0.37339 -3.20287
thorax -14.2593 -0.654879 -4.87368
lowerneck 2.14045 -2.73411 0.026099
upperneck -10.699 -4.04521 -2.07996
head -3.90816 -1.97885 -0.523603
rclavicle 1.98785e-016 -1.11319e-014
rhumerus 46.9493 13.3031 -80.2398
rradius 84.2549
rwrist 35.092
rhand -62.9803 29.4627
rfingers 7.12502
rthumb -34.9842 362.903
lclavicle 1.98785e-016 -1.11319e-014
lhumerus -136.289 213.52 -107.542
lradius 94.1633
lwrist 40.3098
lhand -28.9306 1.52353
lfingers 7.12502
lthumb -2.28466 31.491
rfemur -31.1208 -14.3658 1.84061
rtibia 96.7554
rfoot 332.442 15.0866
rtoes -14.0449
lfemur -37.1708 -4.78663 -11.8101
ltibia 96.0277
lfoot -30.7921 -15.7519
ltoes -4.0802
131
root 3.35028 13.2138 0.503206 -28.3712 -86.6992 12.4157
lowerback 39.172 -0.33715 3.19158
upperback 4.12892 -0.279593 -3.20884
thorax -14.7187 -0.624042 -5.03349
lowerneck 1.88714 -2.89641 -0.0558171
upperneck -10.0431 -4.23344 -2.06552
head -3.62721 -2.07176 -0.505342
rclavicle -6.95746e-015 4.77083e-015
rhumerus 49.1539 11.8922 -79.4252
rradius 84.9845
rwrist 35.696
rhand -64.1397 34.1317
rfingers 7.12502
rthumb -36.0833 367.836
lclavicle -6.95746e-015 4.77083e-015
lhumerus -133.314 212.774 -109.324
lradius 94.2856
lwrist 40.7426
lhand -28.3443 -0.619372
lfingers 7.12502
lthumb -1.71846 29.3535
rfemur -30.6511 -14.4588 1.89678
rtibia 96.5718
rfoot 332.434 14.9306
rtoes -13.9576
lfemur -36.9683 -4.72664 -11.7491
ltibia 96.0287
lfoot -30.6402 -15.613
ltoes -4.45881
132
root 3.30203 13.2444 0.493218 -26.4104 -86.5548 10.4315
lowerback 38.9436 -0.350761 3.39058
upperback 3.71577 -0.177737 -3.22976
thorax -15.1178 -0.592649 -5.22462
lowerneck 1.57359 -3.06655 -0.12043
upperneck -9.4173 -4.43027 -2.02063
head -3.34834 -2.17216 -0.482106
rclavicle 1.46107e-014 -3.33958e-014
rhumerus 51.241 10.3847 -78.6918
rradius 85.689
rwrist 36.2714
rhand -65.2771 40.213
rfingers 7.12502
rthumb -37.1598 374.19
lclavicle 1.46107e-014 -3.33958e-014
lhumerus -130.424 211.982 -111.054
lradius 94.4272
lwrist 41.2833
lhand -27.8522 -2.54193
lfingers 7.12502
lthumb -1.24319 27.4342
rfemur -30.1314 -14.5595 1.99796
rtibia 96.2477
rfoot 332.468 14.7338
rtoes -13.8054
lfemur -36.7159 -4.71362 -11.6994
ltibia 95.8848
lfoot -30.4838 -15.3897
ltoes -4.97985
133
root 3.25254 13.2894 0.483262 -24.5526 -86.4085 8.59522
lowerback 38.6787 -0.346382 3.56856
upperback 3.29664 -0.0605775 -3.23568
thorax -15.5092 -0.555385 -5.39634
lowerneck 1.33232 -3.24062 -0.221629
upperneck -8.88006 -4.63738 -1.96379
head -3.11548 -2.27636 -0.448073
rclavicle 5.76476e-015 6.36111e-015
rhumerus 53.1904 8.86467 -78.0154
rradius 86.3565
rwrist 36.8
rhand -66.3157 47.3115
rfingers 7.12502
rthumb -38.1411 381.551
lclavicle 5.76476e-015 6.36111e-015
lhumerus -127.696 211.164 -112.676
lradius 94.5819
lwrist 41.9511
lhand -27.4691 -4.19921
lfingers 7.12502
lthumb -0.873138 25.7787
rfemur -29.574 -14.615 2.16582
rtibia 95.7708
rfoot 332.436 14.3853
rtoes -13.8935
lfemur -36.4034 -4.7221 -11.6746
ltibia 95.5894
lfoot -30.2941 -15.0821
ltoes -5.42656
134
root 3.20153 13.3466 0.472704 -22.9851 -86.2158 7.09029
lowerback 38.3526 -0.337976 3.72282
upperback 2.90448 0.0441203 -3.25954
thorax -15.8475 -0.523567 -5.56959
lowerneck 1.01552 -3.43478 -0.235641
upperneck -8.33938 -4.87283 -1.96314
head -2.87419 -2.39695 -0.44904
rclavicle 8.84592e-015 -5.40694e-014
rhumerus 55.0222 7.32158 -77.4369
rradius 86.9638
rwrist 37.2741
rhand -67.1201 55.6726
rfingers 7.12502
rthumb -38.9001 390.124
lclavicle 8.84592e-015 -5.40694e-014
lhumerus -125.073 210.316 -114.222
lradius 94.7311
lwrist 42.6583
lhand -27.1494 -5.45609
lfingers 7.12502
lthumb -0.564359 24.5229
rfemur -28.9573 -14.654 2.35053
rtibia 95.1505
rfoot 332.431 13.9816
rtoes -13.762
lfemur -36.0369 -4.78417 -11.6948
ltibia 95.1491
lfoot -30.1246 -14.7492
ltoes -5.93288
135
root 3.1494 13.4183 0.461183 -21.3505 -86.026 5.56721
lowerback 38.0105 -0.317029 3.86215
upperback 2.4949 0.15898 -3.27552
thorax -16.199 -0.488849 -5.73233
lowerneck 0.833102 -3.6351 -0.346205
upperneck -7.93715 -5.12061 -1.89043
head -2.70167 -2.52145 -0.407787
rclavicle 1.81888e-014 -7.15625e-015
rhumerus 56.7292 5.78279 -76.8884
rradius 87.4484
rwrist 37.6198
rhand -67.6517 64.9061
rfingers 7.12502
rthumb -39.4011 399.502
lclavicle 1.81888e-014 -7.15625e-015
lhumerus -122.634 209.475 -115.599
lradius 94.8409
lwrist 43.3698
lhand -26.8403 -6.31808
lfingers 7.12502
lthumb -0.265851 23.6615
rfemur -28.3311 -14.6141 2.62756
rtibia 94.3841
rfoot 332.458 13.4593
rtoes -13.716
lfemur -35.6272 -4.87466 -11.7212
ltibia 94.5599
lfoot -29.9264 -14.3285
ltoes -6.48481
136
root 3.09623 13.5023 0.449593 -19.868 -85.8225 4.20759
lowerback 37.6007 -0.299084 3.98934
upperback 2.17196 0.257027 -3.29311
thorax -16.5402 -0.462926 -5.88251
lowerneck 0.708249 -3.83764 -0.535489
upperneck -7.60433 -5.37513 -1.78967
head -2.56044 -2.6475 -0.343683
rclavicle 1.15295e-014 -1.35174e-014
rhumerus 58.5264 4.26856 -76.2806
rradius 87.6211
rwrist 37.8803
rhand -67.9959 73.7911
rfingers 7.12502
rthumb -39.7253 408.483
lclavicle 1.15295e-014 -1.35174e-014
lhumerus -120.311 208.544 -116.914
lradius 94.9363
lwrist 44.1461
lhand -26.4462 -6.78605
lfingers 7.12502
lthumb 0.114783 23.1937
rfemur -27.6374 -14.5246 2.94639
rtibia 93.4415
rfoot 332.42 12.8493
rtoes -13.7706
lfemur -35.1254 -5.00639 -11.7735
ltibia 93.7965
lfoot -29.7055 -13.8765
ltoes -7.04732
137
root 3.0407 13.6091 0.438102 -18.3369 -85.6153 2.83845
lowerback 37.231 -0.268788 4.10024
upperback 1.76348 0.368321 -3.30208
thorax -16.8801 -0.431767 -6.02236
lowerneck 0.725616 -4.0543 -0.725346
upperneck -7.38872 -5.65327 -1.67935
head -2.48399 -2.78389 -0.272503
rclavicle 2.22639e-014 -9.54166e-015
rhumerus 60.5044 2.71196 -75.5689
rradius 87.3677
rwrist 37.981
rhand -68.1333 81.7306
rfingers 7.12502
rthumb -39.8547 416.461
lclavicle 2.22639e-014 -9.54166e-015
lhumerus -118.108 207.8 -117.951
lradius 94.7218
lwrist 44.7193
lhand -25.8032 -7.06495
lfingers 7.12502
lthumb 0.735787 22.9135
rfemur -26.8656 -14.379 3.34255
rtibia 92.2695
rfoot 332.32 12.1217
rtoes -13.7616
lfemur -34.5069 -5.17987 -11.843
ltibia 92.7958
lfoot -29.4852 -13.3346
ltoes -7.53258
